<svg width="37" height="37" viewBox="0 0 37 37" fill="none" xmlns="http://www.w3.org/2000/svg">
<path d="M33.004 1.43548C32.7889 1.25546 32.5266 1.14114 32.2483 1.10615C31.97 1.07115 31.6875 1.11698 31.4346 1.23815L31.4438 1.23506L1.15625 15.4523V18.2026L13.8781 23.2917L22.0381 35.8455H24.79L33.4835 2.93552C33.5542 2.66651 33.547 2.38292 33.4627 2.11786C33.3783 1.85279 33.2203 1.61719 33.0071 1.43856L33.0055 1.43702L33.004 1.43548ZM23.0895 33.22L16.075 22.4284L26.8682 10.6069L25.16 9.04823L14.282 20.9622L3.7925 16.7674L30.7794 4.09948L23.0895 33.22Z" fill="black"/>
</svg>
