<svg width="52" height="52" viewBox="0 0 52 52" fill="none" xmlns="http://www.w3.org/2000/svg">
<path d="M27.625 4.875C24.0338 4.875 21.125 7.78375 21.125 11.375H11.375V19.5C7.78375 19.5 4.875 22.4088 4.875 26C4.875 29.5912 7.78375 32.5 11.375 32.5V40.625H21.125C21.125 44.2163 24.0338 47.125 27.625 47.125C31.2162 47.125 34.125 44.2163 34.125 40.625H43.875V29.25H40.625C38.6912 29.25 37.375 27.9338 37.375 26C37.375 24.0662 38.6912 22.75 40.625 22.75H43.875V11.375H34.125C34.125 7.78375 31.2162 4.875 27.625 4.875ZM27.625 8.125C29.5588 8.125 30.875 9.44125 30.875 11.375V14.625H40.625V19.5C37.0337 19.5 34.125 22.4088 34.125 26C34.125 29.5912 37.0337 32.5 40.625 32.5V37.375H30.875V40.625C30.875 42.5588 29.5588 43.875 27.625 43.875C25.6912 43.875 24.375 42.5588 24.375 40.625V37.375H14.625V29.25H11.375C9.44125 29.25 8.125 27.9338 8.125 26C8.125 24.0662 9.44125 22.75 11.375 22.75H14.625V14.625H24.375V11.375C24.375 9.44125 25.6912 8.125 27.625 8.125Z" fill="black"/>
</svg>
