<svg width="52" height="52" viewBox="0 0 52 52" fill="none" xmlns="http://www.w3.org/2000/svg">
<path d="M24.375 47.125C27.9662 47.125 30.875 44.2162 30.875 40.625H40.625V32.5C44.2162 32.5 47.125 29.5912 47.125 26C47.125 22.4088 44.2162 19.5 40.625 19.5V11.375H30.875C30.875 7.78375 27.9662 4.875 24.375 4.875C20.7838 4.875 17.875 7.78375 17.875 11.375H8.125V22.75H11.375C13.3088 22.75 14.625 24.0662 14.625 26C14.625 27.9338 13.3088 29.25 11.375 29.25H8.125V40.625H17.875C17.875 44.2162 20.7838 47.125 24.375 47.125ZM24.375 43.875C22.4412 43.875 21.125 42.5588 21.125 40.625V37.375H11.375V32.5C14.9663 32.5 17.875 29.5912 17.875 26C17.875 22.4088 14.9663 19.5 11.375 19.5V14.625H21.125V11.375C21.125 9.44125 22.4412 8.125 24.375 8.125C26.3088 8.125 27.625 9.44125 27.625 11.375V14.625H37.375V22.75H40.625C42.5588 22.75 43.875 24.0662 43.875 26C43.875 27.9338 42.5588 29.25 40.625 29.25H37.375V37.375H27.625V40.625C27.625 42.5588 26.3088 43.875 24.375 43.875Z" fill="white"/>
</svg>
