<svg width="25" height="25" viewBox="0 0 25 25" fill="none" xmlns="http://www.w3.org/2000/svg">
<path d="M21.6555 1.95312H3.34492C1.92891 1.95312 0.78125 3.09297 0.78125 4.49883V16.1367C0.78125 17.5422 1.92891 18.6828 3.34492 18.6828H6.04727V23.0469L10.1059 18.6828H21.6555C23.0719 18.6828 24.2191 17.5422 24.2191 16.1367V4.49883C24.2188 3.09297 23.0715 1.95312 21.6555 1.95312ZM6.24492 11.9547C5.33438 11.9547 4.59687 11.2223 4.59687 10.318C4.59687 9.41406 5.33438 8.68164 6.24492 8.68164C7.15547 8.68164 7.89297 9.41406 7.89297 10.318C7.89297 11.2223 7.15547 11.9547 6.24492 11.9547ZM12.5 11.9547C11.5902 11.9547 10.852 11.2223 10.852 10.318C10.852 9.41406 11.5902 8.68164 12.5 8.68164C13.4098 8.68164 14.148 9.41406 14.148 10.318C14.148 11.2223 13.4098 11.9547 12.5 11.9547ZM18.7551 11.9547C17.8445 11.9547 17.107 11.2223 17.107 10.318C17.107 9.41406 17.8445 8.68164 18.7551 8.68164C19.6648 8.68164 20.4031 9.41406 20.4031 10.318C20.4027 11.2223 19.6648 11.9547 18.7551 11.9547Z" fill="#FD6091"/>
</svg>
